<?xml version="1.0" encoding="utf-8"?>
<!-- Generator: Adobe Illustrator 17.1.0, SVG Export Plug-In . SVG Version: 6.00 Build 0)  -->
<!DOCTYPE svg PUBLIC "-//W3C//DTD SVG 1.1//EN" "http://www.w3.org/Graphics/SVG/1.1/DTD/svg11.dtd">
<svg version="1.1" id="Layer_1" xmlns="http://www.w3.org/2000/svg" xmlns:xlink="http://www.w3.org/1999/xlink" x="0px" y="0px"
	 viewBox="0 0 60 60" enable-background="new 0 0 60 60" xml:space="preserve">
<path fill="#FFFFFF" d="M30,20c-5.5,0-10,4.5-10,10c0,5.5,4.5,10,10,10c5.5,0,10-4.5,10-10C40,24.5,35.5,20,30,20z M38.2,29.5
	c-2.1-0.4-4.1-0.4-5.9-0.1c-0.2-0.5-0.4-0.9-0.6-1.4c1.9-0.8,3.5-2,4.6-3.4C37.4,26,38.1,27.7,38.2,29.5z M35,23.5
	c-1,1.3-2.4,2.3-4.2,3.1C30,25,29.1,23.5,28,22c0.6-0.2,1.3-0.3,2-0.3C31.9,21.7,33.6,22.4,35,23.5z M26.3,22.6
	c1.1,1.5,2.1,2.9,2.9,4.5c-2,0.6-4.4,0.9-7.2,0.9C22.6,25.7,24.2,23.7,26.3,22.6z M21.7,30c0-0.1,0-0.1,0-0.2c3.2,0,6-0.4,8.3-1.1
	c0.2,0.4,0.4,0.8,0.6,1.2c-2.8,0.9-5.1,2.7-6.9,5.4C22.5,33.8,21.7,32,21.7,30z M24.9,36.5c1.6-2.6,3.7-4.2,6.3-5
	c0.8,2,1.3,4.1,1.7,6.2c-0.9,0.4-1.9,0.6-3,0.6C28.1,38.3,26.3,37.6,24.9,36.5z M34.6,36.9c-0.4-2-0.9-3.9-1.6-5.7
	c1.6-0.2,3.3-0.2,5.2,0.2C37.8,33.6,36.5,35.6,34.6,36.9z"/>
</svg>
