<?xml version="1.0" encoding="utf-8"?>
<!-- Generator: Adobe Illustrator 17.1.0, SVG Export Plug-In . SVG Version: 6.00 Build 0)  -->
<!DOCTYPE svg PUBLIC "-//W3C//DTD SVG 1.1//EN" "http://www.w3.org/Graphics/SVG/1.1/DTD/svg11.dtd">
<svg version="1.1" id="Layer_1" xmlns="http://www.w3.org/2000/svg" xmlns:xlink="http://www.w3.org/1999/xlink" x="0px" y="0px"
	 viewBox="0 0 100 100" enable-background="new 0 0 100 100" xml:space="preserve">
<path fill="#FFFFFF" d="M60.6,34.8c-2.8-2.8-6.6-4.4-10.6-4.4c-4,0-7.8,1.6-10.6,4.4c-2.8,2.8-4.4,6.6-4.4,10.6
	c0,4.8,2.3,9.8,6.9,15c3.3,3.7,6.5,6.1,6.6,6.2l1.5,1.1l1.5-1.1c0.1-0.1,3.4-2.5,6.6-6.2c4.6-5.2,6.9-10.2,6.9-15
	C65,41.4,63.4,37.6,60.6,34.8z M40,45.4c0-1.7,0.4-3.3,1.1-4.6c0.3,1.1,0.8,2.2,1.6,3.2c1.5,1.8,3.8,3.2,6.6,3.9
	c3.1,0.8,4.9,2.5,4.7,4.5c-0.2,1.5-1.5,3.1-4.1,3.1C44.5,55.4,40,50.9,40,45.4z M58.9,50c-0.3-1.1-0.8-2.2-1.6-3.2
	c-1.5-1.8-3.8-3.2-6.6-3.9c-3.1-0.8-4.9-2.5-4.7-4.5c0.2-1.5,1.5-3.1,4.1-3.1c5.5,0,10,4.5,10,10C60,47,59.6,48.6,58.9,50z"/>
</svg>
