<?xml version="1.0" standalone="no"?>
<!DOCTYPE svg PUBLIC "-//W3C//DTD SVG 20010904//EN"
 "http://www.w3.org/TR/2001/REC-SVG-20010904/DTD/svg10.dtd">
<svg version="1.0" xmlns="http://www.w3.org/2000/svg"
 width="346.000000pt" height="346.000000pt" viewBox="0 0 346.000000 346.000000"
 preserveAspectRatio="xMidYMid meet">
<metadata>
Created by potrace 1.13, written by Peter Selinger 2001-2015
</metadata>
<g transform="translate(0.000000,346.000000) scale(0.100000,-0.100000)"
fill="#000000" stroke="none">
<path d="M7 3453 c-4 -3 -7 -782 -7 -1730 l0 -1723 949 0 c834 0 950 2 955 15
3 8 11 15 17 15 8 0 8 -4 -1 -15 -11 -13 75 -15 764 -15 l776 0 0 1730 0 1730
-509 0 -508 0 -7 -61 c-3 -34 -6 -85 -6 -113 0 -30 -4 -46 -8 -38 -5 7 -7 58
-5 112 l4 100 -1204 0 c-662 0 -1207 -3 -1210 -7z m1236 -1285 c20 -25 32 -49
27 -51 -6 -3 -5 -4 2 -3 7 2 31 -9 53 -24 97 -66 184 -99 285 -107 72 -6 170
-42 170 -63 0 -4 20 -21 44 -37 37 -25 42 -32 35 -51 -6 -17 -5 -22 7 -22 8 0
12 -5 9 -10 -4 -6 -16 -8 -28 -6 -13 4 -9 0 7 -8 l30 -13 -25 -8 c-13 -4 -43
-20 -67 -36 -24 -16 -50 -29 -58 -29 -8 0 -29 -7 -46 -16 -27 -14 -29 -19 -24
-52 3 -20 6 -41 5 -47 -8 -105 -6 -185 6 -233 20 -74 19 -122 -2 -151 -9 -14
-11 -21 -4 -16 17 10 6 -26 -20 -69 -11 -17 -19 -41 -19 -52 0 -26 -74 -96
-93 -88 -9 3 -17 -3 -20 -15 -5 -19 -37 -31 -37 -13 0 4 -20 6 -45 4 -25 -2
-45 -7 -45 -11 0 -4 -20 -28 -45 -53 -24 -25 -41 -48 -38 -52 3 -3 12 3 20 14
16 23 35 27 27 6 -3 -7 6 -20 20 -29 13 -9 26 -12 28 -7 2 6 16 6 39 0 20 -6
65 -12 100 -14 35 -2 71 -4 79 -5 8 -1 -4 -10 -27 -20 -23 -11 -46 -29 -53
-40 -6 -12 -15 -19 -20 -16 -5 3 -26 6 -47 6 -51 1 -109 19 -93 29 7 4 9 13 6
19 -12 18 -55 13 -68 -9 -13 -20 -26 -20 -100 2 -21 6 -38 15 -38 20 0 5 -6 6
-12 1 -7 -4 -15 -8 -18 -8 -46 -6 -70 -39 -45 -64 13 -13 20 -13 51 -2 62 22
169 18 264 -12 47 -14 105 -29 130 -33 25 -3 51 -13 58 -22 7 -10 12 -11 12
-4 0 7 7 12 15 12 19 0 19 -19 0 -44 -15 -19 -35 -14 -35 10 0 8 -4 14 -8 14
-5 0 -8 -10 -8 -22 1 -13 -5 -23 -11 -24 -7 -1 -18 -2 -24 -3 -5 0 -7 -5 -4
-11 3 -5 -1 -10 -9 -10 -16 0 -20 18 -17 70 2 25 2 25 -18 -5 -12 -16 -26 -38
-33 -48 -11 -14 -10 -19 2 -28 11 -7 -6 -9 -57 -7 -82 4 -93 -7 -37 -37 20
-11 31 -21 25 -23 -22 -7 -10 -21 22 -24 20 -2 31 -8 29 -16 -2 -9 4 -12 15
-8 14 5 18 -1 20 -24 1 -17 -2 -30 -6 -30 -5 0 -8 -12 -8 -27 0 -36 -36 -63
-87 -64 -75 -2 -91 -2 -121 2 -23 3 -30 0 -29 -12 2 -20 -95 42 -115 75 -7 12
-36 33 -65 45 -28 13 -59 31 -70 40 -25 22 -82 111 -90 141 -23 85 -76 174
-137 231 -43 40 -58 60 -53 72 3 9 10 17 15 17 13 0 -2 32 -33 68 -15 18 -28
38 -28 45 1 7 8 -1 16 -16 26 -48 27 -23 3 53 -19 57 -21 73 -10 79 9 6 10 14
3 27 -17 33 -34 95 -28 101 3 3 10 -5 16 -18 7 -17 8 10 5 96 -4 94 -1 134 13
185 16 60 19 65 45 66 30 1 64 24 35 24 -12 0 -15 10 -14 40 1 34 5 41 31 51
16 7 38 19 47 27 15 12 16 12 11 -9 -4 -15 -3 -20 5 -15 7 4 12 13 12 20 0 41
97 98 162 95 15 -1 11 -4 -12 -8 -32 -6 -28 -8 55 -28 50 -12 108 -25 130 -28
40 -6 142 -38 182 -57 31 -15 44 -3 32 29 -8 23 -8 24 6 13 21 -17 19 -1 -2
23 -17 19 -17 19 4 13 12 -4 24 -2 28 4 3 5 4 10 2 10 -32 0 -173 35 -183 45
-8 7 -39 17 -69 20 -53 7 -86 24 -48 26 10 0 -7 9 -37 21 -30 12 -56 25 -58
29 -7 16 -29 9 -67 -21 -21 -16 -42 -30 -47 -30 -12 0 39 43 71 60 16 8 20 14
12 20 -20 12 13 37 58 45 21 3 47 13 58 21 17 14 16 14 -6 3 l-24 -11 26 34
c14 18 35 53 45 77 11 24 23 38 26 32 4 -6 14 -11 23 -11 14 0 13 4 -5 23 -12
13 -22 30 -22 37 0 15 -1 16 53 -52z m-632 -1602 c-2 -11 73 -122 125 -186 29
-36 69 -94 90 -130 32 -57 37 -74 39 -140 1 -76 -2 -100 -14 -100 -3 0 -5 33
-3 74 3 66 0 80 -29 137 -30 61 -79 130 -79 112 0 -4 9 -21 20 -38 11 -16 20
-34 20 -38 0 -15 -103 118 -154 198 -43 69 -47 79 -37 102 10 22 24 27 22 9z"/>
<path d="M1140 1730 c-8 -5 -41 -10 -73 -10 -37 0 -76 -8 -108 -21 l-50 -22
26 -17 c15 -10 35 -15 46 -13 10 3 19 0 19 -6 0 -6 -6 -11 -12 -11 -7 0 12
-13 42 -30 30 -16 64 -29 75 -29 15 1 13 3 -7 9 -37 11 -88 48 -88 64 0 14 63
36 103 36 13 0 28 -7 31 -16 9 -22 8 -24 -10 -24 -8 0 -13 4 -10 9 3 5 -1 11
-9 15 -21 8 -20 -38 1 -58 44 -44 94 -44 130 1 17 22 23 24 42 14 25 -13 30
-36 6 -27 -9 3 -25 -1 -37 -9 -21 -15 -21 -16 15 -12 21 2 41 7 45 10 12 13
25 7 19 -8 -3 -9 0 -15 10 -15 13 0 13 4 -1 30 -14 26 -14 29 0 24 28 -11 5
23 -34 50 -44 31 -91 46 -141 46 -20 0 -30 4 -23 8 7 4 39 5 73 2 33 -3 56 -3
52 1 -13 12 -116 19 -132 9z"/>
</g>
</svg>
