<?xml version="1.0" encoding="utf-8"?>
<!-- Generator: Adobe Illustrator 17.1.0, SVG Export Plug-In . SVG Version: 6.00 Build 0)  -->
<!DOCTYPE svg PUBLIC "-//W3C//DTD SVG 1.1//EN" "http://www.w3.org/Graphics/SVG/1.1/DTD/svg11.dtd">
<svg version="1.1" id="Layer_1" xmlns="http://www.w3.org/2000/svg" xmlns:xlink="http://www.w3.org/1999/xlink" x="0px" y="0px"
	 viewBox="0 0 100 100" enable-background="new 0 0 100 100" xml:space="preserve">
<g>
	<g>
		<path fill="#FFFFFF" d="M66.1,38.6h-10v2.5h10V38.6z M64,57.7c-0.7,0.5-1.5,0.8-2.6,0.8c-1,0-1.9-0.2-2.6-0.7
			c-1.2-0.7-1.8-2-1.9-3.8h13c0-1.5,0-2.7-0.2-3.5c-0.2-1.4-0.7-2.6-1.4-3.7c-0.8-1.2-1.8-2.1-3.1-2.6c-1.2-0.6-2.6-0.8-4.2-0.8
			c-2.6,0-4.7,0.8-6.4,2.5c-1.6,1.6-2.5,4-2.5,7.1c0,3.3,0.9,5.7,2.7,7.1c1.8,1.5,3.9,2.2,6.3,2.2c2.9,0,5.1-0.9,6.7-2.6
			c1-1.1,1.6-2.2,1.7-3.2H65C64.7,57,64.4,57.4,64,57.7z M58.4,48.2c0.7-0.7,1.6-1,2.8-1c1.1,0,2,0.3,2.8,1c0.7,0.6,1.2,1.6,1.2,2.8
			h-8C57.3,49.8,57.7,48.9,58.4,48.2z M46.6,49.1c0.8-0.4,1.5-0.9,1.9-1.4c0.8-0.9,1.1-2.1,1.1-3.7c0-1.5-0.4-2.7-1.1-3.8
			c-1.3-1.7-3.4-2.6-6.4-2.6H30v24.9h11.2c1.3,0,2.4-0.1,3.5-0.3c1.1-0.2,2-0.6,2.8-1.2c0.7-0.5,1.3-1.2,1.8-2
			c0.7-1.2,1.1-2.5,1.1-4c0-1.4-0.3-2.6-1-3.6C48.8,50.3,47.8,49.6,46.6,49.1z M35.7,41.9h4.6c1.2,0,2.2,0.1,2.9,0.4
			c0.9,0.4,1.3,1.1,1.3,2.3c0,1-0.3,1.8-1,2.2c-0.7,0.4-1.6,0.6-2.6,0.6h-5.3V41.9z M43.5,57.7c-0.6,0.3-1.4,0.4-2.5,0.4h-5.3v-6.6
			h5.3c1.1,0,1.9,0.2,2.5,0.4c1.1,0.5,1.6,1.4,1.6,2.7C45.2,56.1,44.6,57.1,43.5,57.7z"/>
	</g>
</g>
</svg>
