<?xml version="1.0" encoding="utf-8"?>
<!-- Generator: Adobe Illustrator 17.1.0, SVG Export Plug-In . SVG Version: 6.00 Build 0)  -->
<!DOCTYPE svg PUBLIC "-//W3C//DTD SVG 1.1//EN" "http://www.w3.org/Graphics/SVG/1.1/DTD/svg11.dtd">
<svg version="1.1" id="Layer_1" xmlns="http://www.w3.org/2000/svg" xmlns:xlink="http://www.w3.org/1999/xlink" x="0px" y="0px"
	 viewBox="0 0 100 100" enable-background="new 0 0 100 100" xml:space="preserve">
<path fill="#FFFFFF" d="M64.8,43.1c-0.1,2.9-2.1,6.8-6.1,11.9c-4,5.2-7.4,7.9-10.2,7.9c-1.7,0-3.2-1.6-4.4-4.8
	c-0.8-2.9-1.6-5.9-2.4-8.8c-0.9-3.2-1.8-4.8-2.9-4.8c-0.2,0-1,0.5-2.3,1.4l-1.4-1.8c1.5-1.3,2.9-2.6,4.3-3.9c2-1.7,3.4-2.6,4.4-2.7
	c2.3-0.2,3.7,1.4,4.3,4.7c0.6,3.6,1,5.9,1.2,6.8c0.7,3,1.4,4.5,2.2,4.5c0.6,0,1.6-1,2.8-2.9c1.2-2,1.9-3.5,2-4.5
	c0.2-1.7-0.5-2.5-2-2.5c-0.7,0-1.4,0.2-2.2,0.5c1.5-4.8,4.2-7.1,8.4-7C63.6,37.3,65,39.2,64.8,43.1z"/>
</svg>
